<svg width="25" height="25" viewBox="0 0 24 24" xmlns="http://www.w3.org/2000/svg" class="cb-icon cb-icon-discorddark pointer-events-none" aria-hidden="true" data-testid="icon-discorddark" focusable="false" role="img"><path d="M18.942 5.27A16.54 16.54 0 0 0 14.816 4c-.195.349-.372.707-.529 1.074a15.366 15.366 0 0 0-4.579 0A11.386 11.386 0 0 0 9.179 4c-1.425.243-2.814.67-4.129 1.273-2.611 3.863-3.319 7.63-2.965 11.345 1.53 1.13 3.24 1.989 5.06 2.54.41-.551.773-1.136 1.084-1.748a10.76 10.76 0 0 1-1.706-.814c.143-.104.283-.211.418-.315a11.887 11.887 0 0 0 10.118 0c.137.112.277.219.418.315-.545.321-1.117.594-1.71.816.312.612.674 1.196 1.084 1.746a16.558 16.558 0 0 0 5.064-2.539c.415-4.307-.71-8.04-2.973-11.35ZM8.678 14.333c-.987 0-1.802-.896-1.802-1.997 0-1.1.787-2.004 1.798-2.004 1.012 0 1.82.903 1.803 2.004-.017 1.101-.794 1.997-1.8 1.997Zm6.644 0c-.988 0-1.8-.896-1.8-1.997 0-1.1.787-2.004 1.8-2.004s1.816.903 1.798 2.004c-.017 1.101-.793 1.997-1.798 1.997Z" fill="#29233B"/></svg>